<svg id="visual" viewBox="0 0 900 150" width="900" height="150" xmlns="http://www.w3.org/2000/svg" xmlns:xlink="http://www.w3.org/1999/xlink" version="1.1"><rect x="0" y="0" width="900" height="150" fill="#1D1D1D"></rect><path d="M0 56L30 61.8C60 67.7 120 79.3 180 73.7C240 68 300 45 360 39.5C420 34 480 46 540 56.3C600 66.7 660 75.3 720 69.7C780 64 840 44 870 34L900 24L900 151L870 151C840 151 780 151 720 151C660 151 600 151 540 151C480 151 420 151 360 151C300 151 240 151 180 151C120 151 60 151 30 151L0 151Z" fill="#3073dc"></path><path d="M0 54L30 48.5C60 43 120 32 180 27C240 22 300 23 360 34.3C420 45.7 480 67.3 540 70.5C600 73.7 660 58.3 720 59.8C780 61.3 840 79.7 870 88.8L900 98L900 151L870 151C840 151 780 151 720 151C660 151 600 151 540 151C480 151 420 151 360 151C300 151 240 151 180 151C120 151 60 151 30 151L0 151Z" fill="#2d65c2"></path><path d="M0 111L30 108C60 105 120 99 180 87C240 75 300 57 360 55C420 53 480 67 540 68C600 69 660 57 720 55C780 53 840 61 870 65L900 69L900 151L870 151C840 151 780 151 720 151C660 151 600 151 540 151C480 151 420 151 360 151C300 151 240 151 180 151C120 151 60 151 30 151L0 151Z" fill="#2958aa"></path><path d="M0 82L30 85.7C60 89.3 120 96.7 180 102.5C240 108.3 300 112.7 360 106.2C420 99.7 480 82.3 540 83.5C600 84.7 660 104.3 720 111.2C780 118 840 112 870 109L900 106L900 151L870 151C840 151 780 151 720 151C660 151 600 151 540 151C480 151 420 151 360 151C300 151 240 151 180 151C120 151 60 151 30 151L0 151Z" fill="#254b91"></path><path d="M0 83L30 82.8C60 82.7 120 82.3 180 86.7C240 91 300 100 360 99C420 98 480 87 540 80.7C600 74.3 660 72.7 720 78C780 83.3 840 95.7 870 101.8L900 108L900 151L870 151C840 151 780 151 720 151C660 151 600 151 540 151C480 151 420 151 360 151C300 151 240 151 180 151C120 151 60 151 30 151L0 151Z" fill="#203e7a"></path><path d="M0 111L30 107.5C60 104 120 97 180 99.8C240 102.7 300 115.3 360 114.3C420 113.3 480 98.7 540 95.5C600 92.3 660 100.7 720 102.7C780 104.7 840 100.3 870 98.2L900 96L900 151L870 151C840 151 780 151 720 151C660 151 600 151 540 151C480 151 420 151 360 151C300 151 240 151 180 151C120 151 60 151 30 151L0 151Z" fill="#1b3264"></path><path d="M0 115L30 111.3C60 107.7 120 100.3 180 103.3C240 106.3 300 119.7 360 119.5C420 119.3 480 105.7 540 106.7C600 107.7 660 123.3 720 129.5C780 135.7 840 132.3 870 130.7L900 129L900 151L870 151C840 151 780 151 720 151C660 151 600 151 540 151C480 151 420 151 360 151C300 151 240 151 180 151C120 151 60 151 30 151L0 151Z" fill="#15264e"></path><path d="M0 124L30 123C60 122 120 120 180 120.3C240 120.7 300 123.3 360 127C420 130.7 480 135.3 540 135.7C600 136 660 132 720 129.8C780 127.7 840 127.3 870 127.2L900 127L900 151L870 151C840 151 780 151 720 151C660 151 600 151 540 151C480 151 420 151 360 151C300 151 240 151 180 151C120 151 60 151 30 151L0 151Z" fill="#0f1b39"></path><path d="M0 122L30 121.5C60 121 120 120 180 123.7C240 127.3 300 135.7 360 138.8C420 142 480 140 540 136.5C600 133 660 128 720 128.2C780 128.3 840 133.7 870 136.3L900 139L900 151L870 151C840 151 780 151 720 151C660 151 600 151 540 151C480 151 420 151 360 151C300 151 240 151 180 151C120 151 60 151 30 151L0 151Z" fill="#090e26"></path></svg>